<svg xmlns="http://www.w3.org/2000/svg" viewBox="0 0 1600 900">
<defs>
  <linearGradient id="bg" x1="0" y1="0" x2="1" y2="1"><stop offset="0" stop-color="#f7fbff"/><stop offset="0.55" stop-color="#e7f2fb"/><stop offset="1" stop-color="#dce9f4"/></linearGradient>
  <linearGradient id="floor" x1="0" y1="0" x2="0" y2="1"><stop offset="0" stop-color="#e9e2d5"/><stop offset="1" stop-color="#cbbba7"/></linearGradient>
  <linearGradient id="glass" x1="0" y1="0" x2="0" y2="1"><stop offset="0" stop-color="#bde8ff"/><stop offset="1" stop-color="#edf9ff"/></linearGradient>
  <filter id="shadow" x="-40%" y="-40%" width="180%" height="180%"><feDropShadow dx="0" dy="18" stdDeviation="18" flood-color="#17334d" flood-opacity="0.18"/></filter>
</defs>
<rect width="1600" height="900" fill="url(#bg)"/>
<polygon points="0,0 1600,0 1420,220 180,220" fill="#edf5f8"/>
<rect y="560" width="1600" height="340" fill="url(#floor)"/>
<path d="M0 720H1600M260 560L190 900M560 560L530 900M860 560L870 900M1160 560L1220 900" stroke="#b9aa97" stroke-opacity="0.35" stroke-width="3"/>
<g transform="translate(80 210)">
  <rect width="240" height="355" rx="8" fill="#917761"/>
  <rect x="18" y="20" width="204" height="315" rx="5" fill="#d8c6a8"/>
  <circle cx="192" cy="180" r="8" fill="#6d5a49"/>
  <rect x="54" y="-54" width="105" height="40" rx="10" fill="#315b87"/>
  <rect x="74" y="-43" width="64" height="6" rx="3" fill="#dff6ff" opacity="0.9"/>
</g>
<g transform="translate(370 245)">
  <rect width="260" height="190" rx="12" fill="#816b54"/>
  <rect x="14" y="14" width="232" height="162" rx="7" fill="#ccb793"/>
  <rect x="34" y="34" width="72" height="92" rx="5" fill="#fff"/>
  <rect x="119" y="42" width="96" height="56" rx="5" fill="#fff4cf"/>
  <rect x="124" y="108" width="80" height="46" rx="5" fill="#dff7eb"/>
</g>
<g transform="translate(1080 170)">
  <rect width="470" height="400" rx="10" fill="#f2eee7"/>
  <g fill="url(#glass)" stroke="#7e9bb0" stroke-width="12">
    <rect x="16" y="16" width="135" height="360"/><rect x="167" y="16" width="135" height="360"/><rect x="318" y="16" width="135" height="360"/>
  </g>
</g>
<g filter="url(#shadow)">
  <g transform="translate(555 340)">
    <ellipse cx="0" cy="150" rx="70" ry="20" fill="#153149" opacity="0.10"/>
    <circle cx="0" cy="42" r="38" fill="#f2c7ad"/>
    <path d="M-46 36C-42-20 40-30 48 35L32 16C16 0-17-2-35 18Z" fill="#202a38"/>
    <rect x="-42" y="78" width="84" height="112" rx="30" fill="#2c4969"/>
    <rect x="-32" y="104" width="64" height="20" rx="8" fill="#eef4f8"/>
    <rect x="-30" y="185" width="23" height="105" rx="10" fill="#2b3647"/>
    <rect x="7" y="185" width="23" height="105" rx="10" fill="#2b3647"/>
  </g>
  <g transform="translate(690 345)">
    <ellipse cx="0" cy="150" rx="66" ry="19" fill="#153149" opacity="0.10"/>
    <circle cx="0" cy="42" r="36" fill="#f4cbb0"/>
    <path d="M-42 32C-30-20 35-22 45 34C27 10-9 0-34 20Z" fill="#6b4738"/>
    <rect x="-40" y="78" width="80" height="108" rx="28" fill="#f1ece4"/>
    <path d="M0 87l11 20-11 14-11-14z" fill="#a75367"/>
    <rect x="-28" y="183" width="20" height="103" rx="10" fill="#31384b"/>
    <rect x="8" y="183" width="20" height="103" rx="10" fill="#31384b"/>
  </g>
  <g transform="translate(810 355)">
    <ellipse cx="0" cy="145" rx="64" ry="18" fill="#153149" opacity="0.10"/>
    <circle cx="0" cy="42" r="35" fill="#f2c5a9"/>
    <circle cx="9" cy="0" r="23" fill="#3c3f51"/>
    <path d="M-39 32C-22-13 33-18 42 34C21 9-14 5-34 22Z" fill="#3c3f51"/>
    <rect x="-38" y="76" width="76" height="105" rx="28" fill="#e5e9ef"/>
    <rect x="-28" y="178" width="20" height="100" rx="10" fill="#323949"/>
    <rect x="8" y="178" width="20" height="100" rx="10" fill="#323949"/>
  </g>
</g>
<g transform="translate(1125 305)" filter="url(#shadow)">
  <ellipse cx="0" cy="260" rx="100" ry="28" fill="#16314b" opacity="0.12"/>
  <circle cx="0" cy="62" r="56" fill="#f3c7ad"/>
  <path d="M-70 56C-64-30 63-36 72 56L51 22C23 2-29 0-54 26Z" fill="#1e2939"/>
  <path d="M-53 67C-40 36 39 36 56 69V128H-56V70Z" fill="#1e2939"/>
  <rect x="-64" y="120" width="128" height="175" rx="36" fill="#243b5a"/>
  <rect x="-48" y="146" width="96" height="30" rx="12" fill="#edf3f8"/>
  <path d="M0 151l13 22-13 17-13-17z" fill="#59b8a8"/>
  <path d="M-54 290h43v170h-43zM11 290h43v170H11z" fill="#2b3546"/>
  <rect x="40" y="202" width="31" height="53" rx="8" fill="#27364e" stroke="#90a5b8" stroke-width="4"/>
  <rect x="61" y="126" width="54" height="115" rx="24" fill="#eef4fb" stroke="#bed0df" stroke-width="5"/>
  <circle cx="86" cy="218" r="10" fill="#a9c8db"/>
</g>
<g opacity="0.42" fill="#75bca7"><circle cx="95" cy="715" r="70"/><circle cx="150" cy="690" r="52"/><rect x="107" y="720" width="36" height="115" rx="12" fill="#7b6658"/></g>
</svg>